<svg width="325" height="44" viewBox="0 0 325 44" xmlns="http://www.w3.org/2000/svg" xmlns:xlink="http://www.w3.org/1999/xlink"><title>Page 1</title><defs><path id="a" d="M0 .315v20.46h21.664V.316H0z"/><path id="c" d="M.176 43.457H13.98V.105H.177v43.352z"/></defs><g fill="none" fill-rule="evenodd"><path d="M.54 16.62l2.97-4.207c1.415 1.346 3.536 2.412 6.082 2.412 1.075 0 2.093-.28 2.093-1.01 0-1.794-10.522.03-10.522-7.346C1.163 3.3 3.823.274 8.998.274c3.083 0 5.855.87 8.005 2.607l-3.056 4.01c-1.64-1.235-3.76-1.85-5.543-1.85-1.132 0-1.443.362-1.443.84 0 1.765 10.495.25 10.495 7.204 0 4.122-3.083 6.505-8.146 6.505-4.018 0-6.76-1.177-8.77-2.97M31.794 19.254v-7.148h-6.76v7.148h-5.713V.554h5.715v6.617h6.76V.556h5.713v18.7M54.393 9.918c0-2.607-1.782-4.68-4.525-4.68-2.745 0-4.526 2.073-4.526 4.68 0 2.608 1.78 4.682 4.526 4.682 2.743 0 4.525-2.074 4.525-4.682m-14.85 0c0-5.746 4.498-9.672 10.325-9.672 5.827 0 10.323 3.926 10.323 9.672 0 5.748-4.495 9.673-10.322 9.673-5.827 0-10.324-3.924-10.324-9.672M76.058 19.254L73.626 8.657l-2.433 10.597h-5.996L59.794.554h6.393l2.433 11.44L71.476.553h4.3l2.856 11.44L81.037.553h6.42l-5.402 18.7" fill="#E8C278"/><g transform="translate(0 22.72)"><mask id="b" fill="#fff"><use xlink:href="#a"/></mask><path fill="#E8C278" mask="url(#b)" d="M7.737 20.776v-8.13L0 .317h7.025l3.838 6.902L14.64.315h7.024L13.99 12.647v8.13"/></g><path d="M36.673 33.282c0-2.853-1.95-5.122-4.952-5.122-3 0-4.95 2.27-4.95 5.122 0 2.853 1.95 5.123 4.95 5.123 3.003 0 4.953-2.27 4.953-5.123m-16.248 0c0-6.288 4.92-10.582 11.296-10.582 6.377 0 11.298 4.294 11.298 10.582 0 6.288-4.92 10.583-11.297 10.583-6.374 0-11.295-4.295-11.295-10.583M45.245 35.092V23.037h6.344v11.84c0 1.964 1.3 3.528 3.868 3.528 2.537 0 3.837-1.564 3.837-3.527v-11.84h6.345V35.06c0 5.093-3.22 8.805-10.182 8.805-6.964 0-10.213-3.712-10.213-8.773M81.082 30.03c0-1.103-.99-1.594-2.043-1.594h-3.807v3.22h3.806c1.05 0 2.042-.49 2.042-1.626zm-.742 13.467l-2.848-6.44h-2.26v6.44h-6.25v-20.46H80c4.827 0 7.426 3.19 7.426 7.025 0 3.527-2.073 5.398-3.714 6.196l3.745 7.24H80.34zM102.92 43.102v-31.26H91.422V.634h35.907V11.84h-11.434v31.262M131.952 43.102V.635h32.502V11.84h-19.526v4.203h19.077v11.204h-19.077v4.648h19.526v11.207M195.35 15.152c0-2.292-2.056-3.31-4.24-3.31h-7.9v6.685h7.9c2.184 0 4.24-1.02 4.24-3.375zm-1.543 27.95l-5.91-13.37h-4.688V43.1h-12.977V.635H193.1c10.02 0 15.42 6.622 15.42 14.58 0 7.32-4.306 11.206-7.71 12.862l7.772 15.025h-14.775zM251.682 43.102v-25.53l-9.574 25.53h-5.78l-9.57-25.53V43.1H213.78V.635h17.925l7.516 20.373L246.735.635h17.923v42.467M268.314 37.118l6.744-9.55c3.214 3.056 8.03 5.473 13.81 5.473 2.443 0 4.754-.634 4.754-2.29 0-4.075-23.895.064-23.895-16.68 0-7.196 6.04-14.07 17.792-14.07 7.003 0 13.298 1.973 18.18 5.92l-6.937 9.104c-3.728-2.8-8.544-4.2-12.59-4.2-2.57 0-3.278.825-3.278 1.908 0 4.01 23.833.572 23.833 16.364 0 9.358-7.003 14.77-18.5 14.77-9.123 0-15.353-2.675-19.914-6.748" fill="#E8C278"/><g transform="translate(310.75 .45)"><mask id="d" fill="#fff"><use xlink:href="#c"/></mask><path d="M.305 36.68c0-3.71 3.096-6.843 6.838-6.843s6.838 3.134 6.838 6.842c0 3.644-3.095 6.777-6.837 6.777-3.742 0-6.838-3.133-6.838-6.778zm1.613-9.784L.175.106H13.98l-1.612 26.79H1.918z" fill="#E8C278" mask="url(#d)"/></g></g></svg>